REM DIRINDEX 1\2,1\3,1\4,1\5
REM DIRNAME folder01,folder02,folder03,folder04,folder05
TITLE ""
FILE "116.mp3" MP3
  TRACK 01 AUDIO
    TITLE "0:"
    INDEX 01 00:00:00
  TRACK 02 AUDIO
    TITLE "2:cjc046_2730"
    INDEX 01 00:00:15
  TRACK 03 AUDIO
    TITLE "0:"
    INDEX 01 00:01:28
  TRACK 04 AUDIO
    TITLE "3:cjc046_2731"
    INDEX 01 00:01:58
  TRACK 05 AUDIO
    TITLE "0:"
    INDEX 01 00:02:61
  TRACK 06 AUDIO
    TITLE "4:cjc046_2732"
    INDEX 01 00:03:00
  TRACK 07 AUDIO
    TITLE "0:"
    INDEX 01 00:04:13
  TRACK 08 AUDIO
    TITLE "2:cjc046_2733"
    INDEX 01 00:05:24
  TRACK 09 AUDIO
    TITLE "0:"
    INDEX 01 00:06:39
  TRACK 10 AUDIO
    TITLE "3:cjc046_2734"
    INDEX 01 00:06:67
  TRACK 11 AUDIO
    TITLE "0:"
    INDEX 01 00:09:00
  TRACK 12 AUDIO
    TITLE "4:cjc046_2735"
    INDEX 01 00:09:16
  TRACK 13 AUDIO
    TITLE "0:"
    INDEX 01 00:10:31
  TRACK 14 AUDIO
    TITLE "2:cjc046_2736"
    INDEX 01 00:11:42
  TRACK 15 AUDIO
    TITLE "0:"
    INDEX 01 00:12:46
  TRACK 16 AUDIO
    TITLE "3:cjc046_2737"
    INDEX 01 00:12:73
  TRACK 17 AUDIO
    TITLE "0:"
    INDEX 01 00:14:60
  TRACK 18 AUDIO
    TITLE "4:cjc046_2738"
    INDEX 01 00:14:74
  TRACK 19 AUDIO
    TITLE "0:"
    INDEX 01 00:16:04
  TRACK 20 AUDIO
    TITLE "2:cjc046_2739"
    INDEX 01 00:17:16
  TRACK 21 AUDIO
    TITLE "0:"
    INDEX 01 00:18:19
  TRACK 22 AUDIO
    TITLE "3:cjc046_2740"
    INDEX 01 00:18:44
  TRACK 23 AUDIO
    TITLE "0:"
    INDEX 01 00:19:52
  TRACK 24 AUDIO
    TITLE "4:cjc046_2741"
    INDEX 01 00:19:63
  TRACK 25 AUDIO
    TITLE "0:"
    INDEX 01 00:20:67
  TRACK 26 AUDIO
    TITLE "2:cjc046_2742"
    INDEX 01 00:22:03
  TRACK 27 AUDIO
    TITLE "0:"
    INDEX 01 00:23:28
  TRACK 28 AUDIO
    TITLE "3:cjc046_2743"
    INDEX 01 00:23:53
  TRACK 29 AUDIO
    TITLE "0:"
    INDEX 01 00:24:63
  TRACK 30 AUDIO
    TITLE "4:cjc046_2744"
    INDEX 01 00:24:74
  TRACK 31 AUDIO
    TITLE "0:"
    INDEX 01 00:26:28
  TRACK 32 AUDIO
    TITLE "2:cjc046_2745"
    INDEX 01 00:27:36
  TRACK 33 AUDIO
    TITLE "0:"
    INDEX 01 00:28:37
  TRACK 34 AUDIO
    TITLE "3:cjc046_2746"
    INDEX 01 00:28:66
  TRACK 35 AUDIO
    TITLE "0:"
    INDEX 01 00:30:20
  TRACK 36 AUDIO
    TITLE "4:cjc046_2747"
    INDEX 01 00:30:36
  TRACK 37 AUDIO
    TITLE "0:"
    INDEX 01 00:31:37
  TRACK 38 AUDIO
    TITLE "2:cjc046_2748"
    INDEX 01 00:32:47
  TRACK 39 AUDIO
    TITLE "0:"
    INDEX 01 00:33:54
  TRACK 40 AUDIO
    TITLE "3:cjc046_2749"
    INDEX 01 00:34:02
  TRACK 41 AUDIO
    TITLE "0:"
    INDEX 01 00:35:15
  TRACK 42 AUDIO
    TITLE "4:cjc046_2750"
    INDEX 01 00:35:25
  TRACK 43 AUDIO
    TITLE "0:"
    INDEX 01 00:36:33
  TRACK 44 AUDIO
    TITLE "2:cjc046_2751"
    INDEX 01 00:37:36
  TRACK 45 AUDIO
    TITLE "0:"
    INDEX 01 00:38:51
  TRACK 46 AUDIO
    TITLE "3:cjc046_2752"
    INDEX 01 00:38:67
  TRACK 47 AUDIO
    TITLE "0:"
    INDEX 01 00:39:66
  TRACK 48 AUDIO
    TITLE "4:cjc046_2753"
    INDEX 01 00:39:72
  TRACK 49 AUDIO
    TITLE "0:"
    INDEX 01 00:41:14
  TRACK 50 AUDIO
    TITLE "2:cjc046_2754"
    INDEX 01 00:42:16
  TRACK 51 AUDIO
    TITLE "0:"
    INDEX 01 00:43:27
  TRACK 52 AUDIO
    TITLE "3:cjc046_2755"
    INDEX 01 00:43:52
  TRACK 53 AUDIO
    TITLE "0:"
    INDEX 01 00:45:16
  TRACK 54 AUDIO
    TITLE "4:cjc046_2756"
    INDEX 01 00:45:30
  TRACK 55 AUDIO
    TITLE "0:"
    INDEX 01 00:46:41
  TRACK 56 AUDIO
    TITLE "2:cjc046_2757"
    INDEX 01 00:47:52
  TRACK 57 AUDIO
    TITLE "0:"
    INDEX 01 00:48:59
  TRACK 58 AUDIO
    TITLE "3:cjc046_2758"
    INDEX 01 00:49:12
  TRACK 59 AUDIO
    TITLE "0:"
    INDEX 01 00:50:17
  TRACK 60 AUDIO
    TITLE "4:cjc046_2759"
    INDEX 01 00:50:31
  TRACK 61 AUDIO
    TITLE "0:"
    INDEX 01 00:51:38
  TRACK 62 AUDIO
    TITLE "2:cjc046_2760"
    INDEX 01 00:52:45
  TRACK 63 AUDIO
    TITLE "0:"
    INDEX 01 00:54:03
  TRACK 64 AUDIO
    TITLE "3:cjc046_2761"
    INDEX 01 00:54:30
  TRACK 65 AUDIO
    TITLE "0:"
    INDEX 01 00:55:53
  TRACK 66 AUDIO
    TITLE "4:cjc046_2762"
    INDEX 01 00:55:65
  TRACK 67 AUDIO
    TITLE "0:"
    INDEX 01 00:57:23
  TRACK 68 AUDIO
    TITLE "2:cjc046_2763"
    INDEX 01 00:58:32
  TRACK 69 AUDIO
    TITLE "0:"
    INDEX 01 00:59:55
  TRACK 70 AUDIO
    TITLE "3:cjc046_2764"
    INDEX 01 01:00:00
  TRACK 71 AUDIO
    TITLE "0:"
    INDEX 01 01:01:46
  TRACK 72 AUDIO
    TITLE "4:cjc046_2765"
    INDEX 01 01:01:64
  TRACK 73 AUDIO
    TITLE "0:"
    INDEX 01 01:03:08
  TRACK 74 AUDIO
    TITLE "2:cjc046_2766"
    INDEX 01 01:04:13
  TRACK 75 AUDIO
    TITLE "0:"
    INDEX 01 01:05:22
  TRACK 76 AUDIO
    TITLE "3:cjc046_2767"
    INDEX 01 01:05:44
  TRACK 77 AUDIO
    TITLE "0:"
    INDEX 01 01:06:73
  TRACK 78 AUDIO
    TITLE "4:cjc046_2768"
    INDEX 01 01:07:10
  TRACK 79 AUDIO
    TITLE "0:"
    INDEX 01 01:08:15
  TRACK 80 AUDIO
    TITLE "2:cjc046_2769"
    INDEX 01 01:09:24
  TRACK 81 AUDIO
    TITLE "0:"
    INDEX 01 01:10:33
  TRACK 82 AUDIO
    TITLE "3:cjc046_2770"
    INDEX 01 01:10:59
  TRACK 83 AUDIO
    TITLE "0:"
    INDEX 01 01:11:64
  TRACK 84 AUDIO
    TITLE "4:cjc046_2771"
    INDEX 01 01:12:03
  TRACK 85 AUDIO
    TITLE "0:"
    INDEX 01 01:13:10
  TRACK 86 AUDIO
    TITLE "2:cjc046_2772"
    INDEX 01 01:14:17
  TRACK 87 AUDIO
    TITLE "0:"
    INDEX 01 01:15:25
  TRACK 88 AUDIO
    TITLE "3:cjc046_2773"
    INDEX 01 01:15:50
  TRACK 89 AUDIO
    TITLE "0:"
    INDEX 01 01:17:06
  TRACK 90 AUDIO
    TITLE "4:cjc046_2774"
    INDEX 01 01:17:20
  TRACK 91 AUDIO
    TITLE "0:"
    INDEX 01 01:18:29
